<mxfile host="app.diagrams.net" modified="2024-07-23T20:44:45.534Z" agent="Mozilla/5.0 (Windows NT 10.0; Win64; x64) AppleWebKit/537.36 (KHTML, like Gecko) Chrome/126.0.0.0 Safari/537.36" etag="e5J190ua_uI7_Bq-B4uQ" version="24.7.1" type="github">
  <diagram id="C5RBs43oDa-KdzZeNtuy" name="Page-1">
    <mxGraphModel dx="1187" dy="671" grid="1" gridSize="10" guides="1" tooltips="1" connect="1" arrows="1" fold="1" page="1" pageScale="1" pageWidth="1920" pageHeight="1200" math="0" shadow="0">
      <root>
        <mxCell id="WIyWlLk6GJQsqaUBKTNV-0" />
        <mxCell id="WIyWlLk6GJQsqaUBKTNV-1" parent="WIyWlLk6GJQsqaUBKTNV-0" />
        <mxCell id="kdvtaurCmk2TyJfEKzhx-3" value="" style="shape=image;verticalLabelPosition=bottom;labelBackgroundColor=default;verticalAlign=top;aspect=fixed;imageAspect=0;image=https://www.smartdraw.com/flowchart/img/basic-symbols-table.jpg;rounded=1;" vertex="1" parent="WIyWlLk6GJQsqaUBKTNV-1">
          <mxGeometry x="1370" y="20" width="540" height="350.23" as="geometry" />
        </mxCell>
        <mxCell id="kdvtaurCmk2TyJfEKzhx-17" value="" style="edgeStyle=orthogonalEdgeStyle;rounded=1;orthogonalLoop=1;jettySize=auto;html=1;" edge="1" parent="WIyWlLk6GJQsqaUBKTNV-1" source="kdvtaurCmk2TyJfEKzhx-15" target="kdvtaurCmk2TyJfEKzhx-16">
          <mxGeometry relative="1" as="geometry" />
        </mxCell>
        <mxCell id="kdvtaurCmk2TyJfEKzhx-15" value="App Start&lt;div&gt;(Splash Screen&lt;/div&gt;" style="rounded=1;whiteSpace=wrap;html=1;arcSize=50;" vertex="1" parent="WIyWlLk6GJQsqaUBKTNV-1">
          <mxGeometry x="40" y="500" width="120" height="60" as="geometry" />
        </mxCell>
        <mxCell id="kdvtaurCmk2TyJfEKzhx-19" value="" style="edgeStyle=orthogonalEdgeStyle;rounded=1;orthogonalLoop=1;jettySize=auto;html=1;" edge="1" parent="WIyWlLk6GJQsqaUBKTNV-1" source="kdvtaurCmk2TyJfEKzhx-16" target="kdvtaurCmk2TyJfEKzhx-18">
          <mxGeometry relative="1" as="geometry" />
        </mxCell>
        <mxCell id="kdvtaurCmk2TyJfEKzhx-16" value="Read User from local storage" style="whiteSpace=wrap;html=1;rounded=1;arcSize=0;" vertex="1" parent="WIyWlLk6GJQsqaUBKTNV-1">
          <mxGeometry x="240" y="500" width="120" height="60" as="geometry" />
        </mxCell>
        <mxCell id="kdvtaurCmk2TyJfEKzhx-39" value="Yes" style="edgeStyle=orthogonalEdgeStyle;rounded=1;orthogonalLoop=1;jettySize=auto;html=1;" edge="1" parent="WIyWlLk6GJQsqaUBKTNV-1" source="kdvtaurCmk2TyJfEKzhx-18" target="kdvtaurCmk2TyJfEKzhx-35">
          <mxGeometry relative="1" as="geometry" />
        </mxCell>
        <mxCell id="kdvtaurCmk2TyJfEKzhx-18" value="User Present" style="rhombus;whiteSpace=wrap;html=1;rounded=1;arcSize=0;" vertex="1" parent="WIyWlLk6GJQsqaUBKTNV-1">
          <mxGeometry x="460" y="490" width="110" height="80" as="geometry" />
        </mxCell>
        <mxCell id="kdvtaurCmk2TyJfEKzhx-32" value="No" style="edgeStyle=orthogonalEdgeStyle;rounded=1;orthogonalLoop=1;jettySize=auto;html=1;" edge="1" parent="WIyWlLk6GJQsqaUBKTNV-1" source="kdvtaurCmk2TyJfEKzhx-18" target="kdvtaurCmk2TyJfEKzhx-31">
          <mxGeometry relative="1" as="geometry">
            <mxPoint x="515" y="490" as="sourcePoint" />
            <mxPoint x="515" y="400" as="targetPoint" />
          </mxGeometry>
        </mxCell>
        <mxCell id="kdvtaurCmk2TyJfEKzhx-31" value="SignUp Screen" style="rounded=1;whiteSpace=wrap;html=1;arcSize=50;" vertex="1" parent="WIyWlLk6GJQsqaUBKTNV-1">
          <mxGeometry x="455" y="350" width="120" height="60" as="geometry" />
        </mxCell>
        <mxCell id="kdvtaurCmk2TyJfEKzhx-38" value="No" style="edgeStyle=orthogonalEdgeStyle;rounded=1;orthogonalLoop=1;jettySize=auto;html=1;exitX=0.5;exitY=0;exitDx=0;exitDy=0;entryX=1;entryY=0.5;entryDx=0;entryDy=0;" edge="1" parent="WIyWlLk6GJQsqaUBKTNV-1" source="kdvtaurCmk2TyJfEKzhx-35" target="kdvtaurCmk2TyJfEKzhx-31">
          <mxGeometry relative="1" as="geometry" />
        </mxCell>
        <mxCell id="kdvtaurCmk2TyJfEKzhx-35" value="Token Valid" style="rhombus;whiteSpace=wrap;html=1;rounded=1;" vertex="1" parent="WIyWlLk6GJQsqaUBKTNV-1">
          <mxGeometry x="720" y="490" width="80" height="80" as="geometry" />
        </mxCell>
      </root>
    </mxGraphModel>
  </diagram>
</mxfile>
